# 3ds Max Wavefront OBJ Exporter v0.97b - (c)2007 guruware
# 创建的文件:24.04.2019 13:46:59

mtllib caodi.mtl

#
# object Rectangle001
#

v  15.9476 16.5544 0.0000
v  -24.9594 16.5528 0.0000
v  -24.9594 16.5528 0.2000
v  15.9476 16.5544 0.2000
v  -24.9594 -33.4470 0.0000
v  -24.9594 -33.4470 0.2000
v  -20.4017 -33.4471 0.0000
v  -20.4017 -33.4471 0.2000
v  -20.1721 -31.0548 0.0000
v  -20.1721 -31.0548 0.2000
v  -19.8436 -28.7023 0.0000
v  -19.8436 -28.7023 0.2000
v  -19.4200 -26.3911 0.0000
v  -19.4200 -26.3911 0.2000
v  -18.9054 -24.1224 0.0000
v  -18.9054 -24.1224 0.2000
v  -18.3040 -21.8976 0.0000
v  -18.3040 -21.8976 0.2000
v  -17.6198 -19.7182 0.0000
v  -17.6198 -19.7182 0.2000
v  -16.8568 -17.5854 0.0000
v  -16.8568 -17.5854 0.2000
v  -16.0191 -15.5007 0.0000
v  -16.0191 -15.5007 0.2000
v  -15.1108 -13.4654 0.0000
v  -15.1108 -13.4654 0.2000
v  -14.1358 -11.4809 0.0000
v  -14.1358 -11.4809 0.2000
v  -13.0983 -9.5485 0.0000
v  -13.0983 -9.5485 0.2000
v  -12.0024 -7.6697 0.0000
v  -12.0024 -7.6697 0.2000
v  -9.6512 -4.0782 0.0000
v  -9.6512 -4.0782 0.2000
v  -7.1149 -0.7172 0.0000
v  -7.1149 -0.7172 0.2000
v  -4.4258 2.4023 0.0000
v  -4.4258 2.4023 0.2000
v  -1.6165 5.2693 0.0000
v  -1.6165 5.2693 0.2000
v  1.2807 7.8728 0.0000
v  1.2807 7.8728 0.2000
v  4.2332 10.2018 0.0000
v  4.2332 10.2018 0.2000
v  7.2086 12.2455 0.0000
v  7.2086 12.2455 0.2000
v  8.6948 13.1568 0.0000
v  8.6948 13.1568 0.2000
v  10.1745 13.9928 0.0000
v  10.1745 13.9928 0.2000
v  11.6436 14.7518 0.0000
v  11.6436 14.7518 0.2000
v  13.0983 15.4327 0.0000
v  13.0983 15.4327 0.2000
v  14.5343 16.0340 0.0000
v  14.5343 16.0340 0.2000
v  -10.3252 -33.4470 0.0000
v  25.0407 -33.4470 0.0000
v  25.0407 -33.4470 0.2000
v  -10.3252 -33.4470 0.2000
v  25.0372 8.4515 0.0000
v  25.0372 8.4515 0.2000
v  23.8369 8.3170 0.0000
v  23.8369 8.3170 0.2000
v  22.5973 8.0949 0.0000
v  22.5973 8.0949 0.2000
v  21.3231 7.7864 0.0000
v  21.3231 7.7864 0.2000
v  20.0186 7.3928 0.0000
v  20.0186 7.3928 0.2000
v  18.6886 6.9151 0.0000
v  18.6886 6.9151 0.2000
v  17.3375 6.3546 0.0000
v  17.3375 6.3546 0.2000
v  15.9698 5.7124 0.0000
v  15.9698 5.7124 0.2000
v  14.5901 4.9897 0.0000
v  14.5901 4.9897 0.2000
v  13.2029 4.1876 0.0000
v  13.2029 4.1876 0.2000
v  11.8129 3.3075 0.0000
v  11.8129 3.3075 0.2000
v  10.4244 2.3503 0.0000
v  10.4244 2.3503 0.2000
v  9.0421 1.3174 0.0000
v  9.0421 1.3174 0.2000
v  7.6704 0.2098 0.0000
v  7.6704 0.2098 0.2000
v  6.3140 -0.9712 0.0000
v  6.3140 -0.9712 0.2000
v  4.9773 -2.2244 0.0000
v  4.9773 -2.2244 0.2000
v  3.6650 -3.5488 0.0000
v  3.6650 -3.5488 0.2000
v  2.3814 -4.9430 0.0000
v  2.3814 -4.9430 0.2000
v  1.1313 -6.4060 0.0000
v  1.1313 -6.4060 0.2000
v  -0.0810 -7.9366 0.0000
v  -0.0810 -7.9366 0.2000
v  -1.2508 -9.5335 0.0000
v  -1.2508 -9.5335 0.2000
v  -2.3736 -11.1957 0.0000
v  -2.3736 -11.1957 0.2000
v  -3.4448 -12.9219 0.0000
v  -3.4448 -12.9219 0.2000
v  -4.4601 -14.7109 0.0000
v  -4.4601 -14.7109 0.2000
v  -5.4147 -16.5617 0.0000
v  -5.4147 -16.5617 0.2000
v  -6.3041 -18.4729 0.0000
v  -6.3041 -18.4729 0.2000
v  -7.1239 -20.4435 0.0000
v  -7.1239 -20.4435 0.2000
v  -7.8695 -22.4722 0.0000
v  -7.8695 -22.4722 0.2000
v  -8.5363 -24.5579 0.0000
v  -8.5363 -24.5579 0.2000
v  -9.1198 -26.6994 0.0000
v  -9.1198 -26.6994 0.2000
v  -9.6155 -28.8955 0.0000
v  -9.6155 -28.8955 0.2000
v  -10.0188 -31.1451 0.0000
v  -10.0188 -31.1451 0.2000
# 124 vertices

vn -0.0000 1.0000 0.0000
vn -1.0000 0.0000 0.0000
vn -0.0000 -1.0000 0.0000
vn 0.9954 -0.0955 0.0000
vn 0.9931 -0.1169 0.0000
vn 0.9872 -0.1593 0.0000
vn 0.9796 -0.2008 0.0000
vn 0.9705 -0.2411 0.0000
vn 0.9599 -0.2803 0.0000
vn 0.9480 -0.3183 0.0000
vn 0.9349 -0.3549 0.0000
vn 0.9207 -0.3903 0.0000
vn 0.9055 -0.4243 0.0000
vn 0.8894 -0.4571 0.0000
vn 0.8725 -0.4885 0.0000
vn 0.8505 -0.5260 0.0000
vn 0.8179 -0.5754 0.0000
vn 0.7782 -0.6280 0.0000
vn 0.7362 -0.6768 0.0000
vn 0.6917 -0.7222 0.0000
vn 0.6442 -0.7649 0.0000
vn 0.5931 -0.8051 0.0000
vn 0.5447 -0.8387 0.0000
vn 0.5074 -0.8617 0.0000
vn 0.4755 -0.8797 0.0000
vn 0.4416 -0.8972 0.0000
vn 0.4052 -0.9142 0.0000
vn 0.3660 -0.9306 0.0000
vn 0.3455 -0.9384 0.0000
vn 1.0000 0.0001 0.0000
vn -0.1114 0.9938 0.0000
vn -0.1439 0.9896 0.0000
vn -0.2059 0.9786 0.0000
vn -0.2622 0.9650 0.0000
vn -0.3136 0.9496 0.0000
vn -0.3607 0.9327 0.0000
vn -0.4042 0.9147 0.0000
vn -0.4446 0.8957 0.0000
vn -0.4824 0.8760 0.0000
vn -0.5179 0.8555 0.0000
vn -0.5514 0.8343 0.0000
vn -0.5832 0.8123 0.0000
vn -0.6135 0.7897 0.0000
vn -0.6425 0.7662 0.0000
vn -0.6704 0.7420 0.0000
vn -0.6973 0.7168 0.0000
vn -0.7231 0.6907 0.0000
vn -0.7481 0.6636 0.0000
vn -0.7722 0.6354 0.0000
vn -0.7955 0.6060 0.0000
vn -0.8178 0.5755 0.0000
vn -0.8393 0.5436 0.0000
vn -0.8599 0.5105 0.0000
vn -0.8794 0.4761 0.0000
vn -0.8979 0.4403 0.0000
vn -0.9152 0.4031 0.0000
vn -0.9312 0.3646 0.0000
vn -0.9458 0.3248 0.0000
vn -0.9589 0.2838 0.0000
vn -0.9704 0.2416 0.0000
vn -0.9801 0.1984 0.0000
vn -0.9880 0.1542 0.0000
vn -0.9913 0.1319 0.0000
vn 0.0000 0.0000 -1.0000
vn 0.0000 0.0000 1.0000
# 65 vertex normals

vt -1.0907 0.4424 3.0001
vt 3.0000 0.4424 2.9999
vt 3.0000 0.4885 2.9999
vt -1.0907 0.4885 3.0001
vt -1.9999 0.4424 -2.0000
vt 3.0001 0.4424 -2.0000
vt 3.0001 0.4885 -2.0000
vt -1.9999 0.4885 -2.0000
vt -2.0000 0.4424 -2.0001
vt -1.5442 0.4424 -2.0001
vt -1.5442 0.4885 -2.0001
vt -2.0000 0.4885 -2.0001
vt -2.0001 0.4424 -1.5442
vt -1.7608 0.4424 -1.5213
vt -1.7608 0.4885 -1.5213
vt -2.0001 0.4885 -1.5442
vt -1.5256 0.4424 -1.4884
vt -1.5256 0.4885 -1.4884
vt -1.2945 0.4424 -1.4461
vt -1.2945 0.4885 -1.4461
vt -1.0676 0.4424 -1.3946
vt -1.0676 0.4885 -1.3946
vt -0.8451 0.4424 -1.3345
vt -0.8451 0.4885 -1.3345
vt -0.6272 0.4424 -1.2660
vt -0.6272 0.4885 -1.2660
vt -0.4139 0.4424 -1.1897
vt -0.4139 0.4885 -1.1897
vt -0.2054 0.4424 -1.1060
vt -0.2054 0.4885 -1.1060
vt -0.0019 0.4424 -1.0151
vt -0.0019 0.4885 -1.0151
vt 0.1965 0.4424 -0.9176
vt 0.1965 0.4885 -0.9176
vt 0.3898 0.4424 -0.8139
vt 0.3898 0.4885 -0.8139
vt 0.5777 0.4424 -0.7043
vt 0.5777 0.4885 -0.7043
vt 0.9368 0.4424 -0.4692
vt 0.9368 0.4885 -0.4692
vt 1.2729 0.4424 -0.2156
vt 1.2729 0.4885 -0.2156
vt 1.5849 0.4424 0.0534
vt 1.5849 0.4885 0.0534
vt 1.8716 0.4424 0.3343
vt 1.8716 0.4885 0.3343
vt 0.3343 0.4424 1.8716
vt 0.6240 0.4424 2.1319
vt 0.6240 0.4885 2.1319
vt 0.3343 0.4885 1.8716
vt 0.9193 0.4424 2.3648
vt 0.9193 0.4885 2.3648
vt 1.2168 0.4424 2.5692
vt 1.2168 0.4885 2.5692
vt 1.3654 0.4424 2.6603
vt 1.3654 0.4885 2.6603
vt 1.5134 0.4424 2.7439
vt 1.5134 0.4885 2.7439
vt 1.6603 0.4424 2.8198
vt 1.6603 0.4885 2.8198
vt 1.8058 0.4424 2.8879
vt 1.8058 0.4885 2.8879
vt 1.9494 0.4424 2.9480
vt 1.9494 0.4885 2.9480
vt 2.0907 0.4424 3.0001
vt 2.0907 0.4885 3.0001
vt -0.5366 0.4424 -2.0001
vt 3.0000 0.4424 -2.0001
vt 3.0000 0.4885 -2.0001
vt -0.5366 0.4885 -2.0001
vt -2.0001 0.4424 3.0000
vt 2.1898 0.4424 2.9997
vt 2.1898 0.4885 2.9997
vt -2.0001 0.4885 3.0000
vt -1.9997 0.4424 2.1898
vt -1.8796 0.4424 2.1763
vt -1.8796 0.4885 2.1763
vt -1.9997 0.4885 2.1898
vt -1.7557 0.4424 2.1541
vt -1.7557 0.4885 2.1541
vt -1.6282 0.4424 2.1233
vt -1.6282 0.4885 2.1233
vt -1.4978 0.4424 2.0839
vt -1.4978 0.4885 2.0839
vt -1.3648 0.4424 2.0361
vt -1.3648 0.4885 2.0361
vt -1.2297 0.4424 1.9801
vt -1.2297 0.4885 1.9801
vt -1.0929 0.4424 1.9159
vt -1.0929 0.4885 1.9159
vt -0.9549 0.4424 1.8436
vt -0.9549 0.4885 1.8436
vt -0.8162 0.4424 1.7634
vt -0.8162 0.4885 1.7634
vt -0.6772 0.4424 1.6754
vt -0.6772 0.4885 1.6754
vt -0.5384 0.4424 1.5797
vt -0.5384 0.4885 1.5797
vt -0.4001 0.4424 1.4764
vt -0.4001 0.4885 1.4764
vt -0.2630 0.4424 1.3656
vt -0.2630 0.4885 1.3656
vt -0.1273 0.4424 1.2475
vt -0.1273 0.4885 1.2475
vt 0.0063 0.4424 1.1222
vt 0.0063 0.4885 1.1222
vt -0.1222 0.4424 0.9937
vt 0.0102 0.4424 0.8624
vt 0.0102 0.4885 0.8624
vt -0.1222 0.4885 0.9937
vt 0.1497 0.4424 0.7341
vt 0.1497 0.4885 0.7341
vt 0.2960 0.4424 0.6091
vt 0.2960 0.4885 0.6091
vt 0.4490 0.4424 0.4878
vt 0.4490 0.4885 0.4878
vt 0.6087 0.4424 0.3709
vt 0.6087 0.4885 0.3709
vt 0.7749 0.4424 0.2586
vt 0.7749 0.4885 0.2586
vt 0.9476 0.4424 0.1515
vt 0.9476 0.4885 0.1515
vt 1.1265 0.4424 0.0499
vt 1.1265 0.4885 0.0499
vt 1.3115 0.4424 -0.0455
vt 1.3115 0.4885 -0.0455
vt 1.5027 0.4424 -0.1345
vt 1.5027 0.4885 -0.1345
vt 1.6997 0.4424 -0.2165
vt 1.6997 0.4885 -0.2165
vt 1.9026 0.4424 -0.2910
vt 1.9026 0.4885 -0.2910
vt 2.1112 0.4424 -0.3577
vt 2.1112 0.4885 -0.3577
vt 2.3253 0.4424 -0.4160
vt 2.3253 0.4885 -0.4160
vt 2.5449 0.4424 -0.4656
vt 2.5449 0.4885 -0.4656
vt 2.7699 0.4424 -0.5059
vt 2.7699 0.4885 -0.5059
vt 3.0001 0.4424 -0.5366
vt 3.0001 0.4885 -0.5366
vt -0.9494 2.9480 0.4424
vt 3.0000 2.9999 0.4424
vt -1.0907 3.0001 0.4424
vt -0.8058 2.8879 0.4424
vt -0.6603 2.8198 0.4424
vt -0.5134 2.7439 0.4424
vt -0.3654 2.6603 0.4424
vt -0.2168 2.5692 0.4424
vt 0.0807 2.3648 0.4424
vt 0.3760 2.1319 0.4424
vt 0.6657 1.8716 0.4424
vt 0.9466 1.5849 0.4424
vt 1.2156 1.2729 0.4424
vt 2.5442 -2.0001 0.4424
vt 3.0000 -2.0001 0.4424
vt 2.5213 -1.7608 0.4424
vt 2.4884 -1.5256 0.4424
vt 2.4461 -1.2945 0.4424
vt 2.3946 -1.0676 0.4424
vt 2.3345 -0.8451 0.4424
vt 2.2660 -0.6272 0.4424
vt 2.1897 -0.4139 0.4424
vt 2.1060 -0.2054 0.4424
vt 2.0151 -0.0019 0.4424
vt 1.9176 0.1965 0.4424
vt 1.8139 0.3898 0.4424
vt 1.7043 0.5777 0.4424
vt 1.4692 0.9368 0.4424
vt 1.5059 -1.7699 0.4424
vt -2.0000 -2.0001 0.4424
vt 1.5366 -2.0001 0.4424
vt 1.4656 -1.5449 0.4424
vt -1.9997 2.1898 0.4424
vt 1.4160 -1.3253 0.4424
vt 1.3577 -1.1112 0.4424
vt 1.2910 -0.9026 0.4424
vt 1.2165 -0.6997 0.4424
vt 1.1345 -0.5027 0.4424
vt 1.0455 -0.3115 0.4424
vt 0.9501 -0.1265 0.4424
vt 0.8485 0.0524 0.4424
vt 0.7414 0.2251 0.4424
vt 0.6291 0.3913 0.4424
vt 0.5122 0.5510 0.4424
vt 0.3909 0.7040 0.4424
vt 0.2659 0.8503 0.4424
vt 0.1376 0.9898 0.4424
vt 0.0063 1.1222 0.4424
vt -0.1273 1.2475 0.4424
vt -0.2630 1.3656 0.4424
vt -0.4001 1.4764 0.4424
vt -0.5384 1.5797 0.4424
vt -0.6772 1.6754 0.4424
vt -0.8162 1.7634 0.4424
vt -0.9549 1.8436 0.4424
vt -1.0929 1.9159 0.4424
vt -1.2297 1.9801 0.4424
vt -1.3648 2.0361 0.4424
vt -1.4978 2.0839 0.4424
vt -1.6282 2.1233 0.4424
vt -1.7557 2.1541 0.4424
vt -1.8796 2.1763 0.4424
vt 1.9494 2.9480 0.4885
vt 2.0907 3.0001 0.4885
vt -2.0000 2.9999 0.4885
vt 1.8058 2.8879 0.4885
vt 1.6603 2.8198 0.4885
vt 1.5134 2.7439 0.4885
vt 1.3654 2.6603 0.4885
vt 1.2168 2.5692 0.4885
vt 0.9193 2.3648 0.4885
vt 0.6240 2.1319 0.4885
vt 0.3343 1.8716 0.4885
vt 0.0534 1.5849 0.4885
vt -0.2156 1.2729 0.4885
vt -2.0000 -2.0001 0.4885
vt -1.5442 -2.0001 0.4885
vt -1.5213 -1.7608 0.4885
vt -1.4884 -1.5256 0.4885
vt -1.4461 -1.2945 0.4885
vt -1.3946 -1.0676 0.4885
vt -1.3345 -0.8451 0.4885
vt -1.2660 -0.6272 0.4885
vt -1.1897 -0.4139 0.4885
vt -1.1060 -0.2054 0.4885
vt -1.0151 -0.0019 0.4885
vt -0.9176 0.1965 0.4885
vt -0.8139 0.3898 0.4885
vt -0.7043 0.5777 0.4885
vt -0.4692 0.9368 0.4885
vt -0.5059 -1.7699 0.4885
vt -0.5366 -2.0001 0.4885
vt 3.0000 -2.0001 0.4885
vt -0.4656 -1.5449 0.4885
vt 2.9997 2.1898 0.4885
vt -0.4160 -1.3253 0.4885
vt -0.3577 -1.1112 0.4885
vt -0.2910 -0.9026 0.4885
vt -0.2165 -0.6997 0.4885
vt -0.1345 -0.5027 0.4885
vt -0.0455 -0.3115 0.4885
vt 0.0499 -0.1265 0.4885
vt 0.1515 0.0524 0.4885
vt 0.2586 0.2251 0.4885
vt 0.3709 0.3913 0.4885
vt 0.4878 0.5510 0.4885
vt 0.6091 0.7040 0.4885
vt 0.7341 0.8503 0.4885
vt 0.8624 0.9898 0.4885
vt 0.9937 1.1222 0.4885
vt 1.1273 1.2475 0.4885
vt 1.2630 1.3656 0.4885
vt 1.4001 1.4764 0.4885
vt 1.5384 1.5797 0.4885
vt 1.6772 1.6754 0.4885
vt 1.8162 1.7634 0.4885
vt 1.9549 1.8436 0.4885
vt 2.0929 1.9159 0.4885
vt 2.2297 1.9801 0.4885
vt 2.3648 2.0361 0.4885
vt 2.4978 2.0839 0.4885
vt 2.6282 2.1233 0.4885
vt 2.7557 2.1541 0.4885
vt 2.8796 2.1763 0.4885
# 266 texture coords

g Rectangle001
usemtl 02___Default
s 1
f 1/1/1 2/2/1 3/3/1 
f 1/1/1 3/3/1 4/4/1 
s 4
f 2/5/2 5/6/2 6/7/2 
f 2/5/2 6/7/2 3/8/2 
s 2
f 5/9/3 7/10/3 8/11/3 
f 5/9/3 8/11/3 6/12/3 
s 4
f 7/13/4 9/14/5 10/15/5 
f 7/13/4 10/15/5 8/16/4 
f 9/14/5 11/17/6 12/18/6 
f 9/14/5 12/18/6 10/15/5 
f 11/17/6 13/19/7 14/20/7 
f 11/17/6 14/20/7 12/18/6 
f 13/19/7 15/21/8 16/22/8 
f 13/19/7 16/22/8 14/20/7 
f 15/21/8 17/23/9 18/24/9 
f 15/21/8 18/24/9 16/22/8 
f 17/23/9 19/25/10 20/26/10 
f 17/23/9 20/26/10 18/24/9 
f 19/25/10 21/27/11 22/28/11 
f 19/25/10 22/28/11 20/26/10 
f 21/27/11 23/29/12 24/30/12 
f 21/27/11 24/30/12 22/28/11 
f 23/29/12 25/31/13 26/32/13 
f 23/29/12 26/32/13 24/30/12 
f 25/31/13 27/33/14 28/34/14 
f 25/31/13 28/34/14 26/32/13 
f 27/33/14 29/35/15 30/36/15 
f 27/33/14 30/36/15 28/34/14 
f 29/35/15 31/37/16 32/38/16 
f 29/35/15 32/38/16 30/36/15 
f 31/37/16 33/39/17 34/40/17 
f 31/37/16 34/40/17 32/38/16 
f 33/39/17 35/41/18 36/42/18 
f 33/39/17 36/42/18 34/40/17 
f 35/41/18 37/43/19 38/44/19 
f 35/41/18 38/44/19 36/42/18 
f 37/43/19 39/45/20 40/46/20 
f 37/43/19 40/46/20 38/44/19 
f 39/47/20 41/48/21 42/49/21 
f 39/47/20 42/49/21 40/50/20 
f 41/48/21 43/51/22 44/52/22 
f 41/48/21 44/52/22 42/49/21 
f 43/51/22 45/53/23 46/54/23 
f 43/51/22 46/54/23 44/52/22 
f 45/53/23 47/55/24 48/56/24 
f 45/53/23 48/56/24 46/54/23 
f 47/55/24 49/57/25 50/58/25 
f 47/55/24 50/58/25 48/56/24 
f 49/57/25 51/59/26 52/60/26 
f 49/57/25 52/60/26 50/58/25 
f 51/59/26 53/61/27 54/62/27 
f 51/59/26 54/62/27 52/60/26 
f 53/61/27 55/63/28 56/64/28 
f 53/61/27 56/64/28 54/62/27 
f 55/63/28 1/65/29 4/66/29 
f 55/63/28 4/66/29 56/64/28 
s 1
f 57/67/3 58/68/3 59/69/3 
f 57/67/3 59/69/3 60/70/3 
s 4
f 58/71/30 61/72/30 62/73/30 
f 58/71/30 62/73/30 59/74/30 
s 2
f 61/75/31 63/76/32 64/77/32 
f 61/75/31 64/77/32 62/78/31 
f 63/76/32 65/79/33 66/80/33 
f 63/76/32 66/80/33 64/77/32 
f 65/79/33 67/81/34 68/82/34 
f 65/79/33 68/82/34 66/80/33 
f 67/81/34 69/83/35 70/84/35 
f 67/81/34 70/84/35 68/82/34 
f 69/83/35 71/85/36 72/86/36 
f 69/83/35 72/86/36 70/84/35 
f 71/85/36 73/87/37 74/88/37 
f 71/85/36 74/88/37 72/86/36 
f 73/87/37 75/89/38 76/90/38 
f 73/87/37 76/90/38 74/88/37 
f 75/89/38 77/91/39 78/92/39 
f 75/89/38 78/92/39 76/90/38 
f 77/91/39 79/93/40 80/94/40 
f 77/91/39 80/94/40 78/92/39 
f 79/93/40 81/95/41 82/96/41 
f 79/93/40 82/96/41 80/94/40 
f 81/95/41 83/97/42 84/98/42 
f 81/95/41 84/98/42 82/96/41 
f 83/97/42 85/99/43 86/100/43 
f 83/97/42 86/100/43 84/98/42 
f 85/99/43 87/101/44 88/102/44 
f 85/99/43 88/102/44 86/100/43 
f 87/101/44 89/103/45 90/104/45 
f 87/101/44 90/104/45 88/102/44 
f 89/103/45 91/105/46 92/106/46 
f 89/103/45 92/106/46 90/104/45 
f 91/107/46 93/108/47 94/109/47 
f 91/107/46 94/109/47 92/110/46 
f 93/108/47 95/111/48 96/112/48 
f 93/108/47 96/112/48 94/109/47 
f 95/111/48 97/113/49 98/114/49 
f 95/111/48 98/114/49 96/112/48 
f 97/113/49 99/115/50 100/116/50 
f 97/113/49 100/116/50 98/114/49 
f 99/115/50 101/117/51 102/118/51 
f 99/115/50 102/118/51 100/116/50 
f 101/117/51 103/119/52 104/120/52 
f 101/117/51 104/120/52 102/118/51 
f 103/119/52 105/121/53 106/122/53 
f 103/119/52 106/122/53 104/120/52 
f 105/121/53 107/123/54 108/124/54 
f 105/121/53 108/124/54 106/122/53 
f 107/123/54 109/125/55 110/126/55 
f 107/123/54 110/126/55 108/124/54 
f 109/125/55 111/127/56 112/128/56 
f 109/125/55 112/128/56 110/126/55 
f 111/127/56 113/129/57 114/130/57 
f 111/127/56 114/130/57 112/128/56 
f 113/129/57 115/131/58 116/132/58 
f 113/129/57 116/132/58 114/130/57 
f 115/131/58 117/133/59 118/134/59 
f 115/131/58 118/134/59 116/132/58 
f 117/133/59 119/135/60 120/136/60 
f 117/133/59 120/136/60 118/134/59 
f 119/135/60 121/137/61 122/138/61 
f 119/135/60 122/138/61 120/136/60 
f 121/137/61 123/139/62 124/140/62 
f 121/137/61 124/140/62 122/138/61 
f 123/139/62 57/141/63 60/142/63 
f 123/139/62 60/142/63 124/140/62 
s 16
f 55/143/64 2/144/64 1/145/64 
f 53/146/64 2/144/64 55/143/64 
f 51/147/64 2/144/64 53/146/64 
f 49/148/64 2/144/64 51/147/64 
f 47/149/64 2/144/64 49/148/64 
f 45/150/64 2/144/64 47/149/64 
f 43/151/64 2/144/64 45/150/64 
f 41/152/64 2/144/64 43/151/64 
f 39/153/64 2/144/64 41/152/64 
f 37/154/64 2/144/64 39/153/64 
f 35/155/64 2/144/64 37/154/64 
f 2/144/64 7/156/64 5/157/64 
f 2/144/64 9/158/64 7/156/64 
f 2/144/64 11/159/64 9/158/64 
f 2/144/64 13/160/64 11/159/64 
f 2/144/64 15/161/64 13/160/64 
f 2/144/64 17/162/64 15/161/64 
f 2/144/64 19/163/64 17/162/64 
f 2/144/64 21/164/64 19/163/64 
f 2/144/64 23/165/64 21/164/64 
f 2/144/64 25/166/64 23/165/64 
f 2/144/64 27/167/64 25/166/64 
f 2/144/64 29/168/64 27/167/64 
f 2/144/64 31/169/64 29/168/64 
f 2/144/64 33/170/64 31/169/64 
f 35/155/64 33/170/64 2/144/64 
f 123/171/64 58/172/64 57/173/64 
f 121/174/64 58/172/64 123/171/64 
f 121/174/64 61/175/64 58/172/64 
f 119/176/64 61/175/64 121/174/64 
f 117/177/64 61/175/64 119/176/64 
f 115/178/64 61/175/64 117/177/64 
f 113/179/64 61/175/64 115/178/64 
f 111/180/64 61/175/64 113/179/64 
f 109/181/64 61/175/64 111/180/64 
f 107/182/64 61/175/64 109/181/64 
f 105/183/64 61/175/64 107/182/64 
f 103/184/64 61/175/64 105/183/64 
f 101/185/64 61/175/64 103/184/64 
f 99/186/64 61/175/64 101/185/64 
f 97/187/64 61/175/64 99/186/64 
f 95/188/64 61/175/64 97/187/64 
f 93/189/64 61/175/64 95/188/64 
f 91/190/64 61/175/64 93/189/64 
f 89/191/64 61/175/64 91/190/64 
f 87/192/64 61/175/64 89/191/64 
f 85/193/64 61/175/64 87/192/64 
f 83/194/64 61/175/64 85/193/64 
f 81/195/64 61/175/64 83/194/64 
f 79/196/64 61/175/64 81/195/64 
f 77/197/64 61/175/64 79/196/64 
f 75/198/64 61/175/64 77/197/64 
f 73/199/64 61/175/64 75/198/64 
f 71/200/64 61/175/64 73/199/64 
f 69/201/64 61/175/64 71/200/64 
f 67/202/64 61/175/64 69/201/64 
f 65/203/64 61/175/64 67/202/64 
f 63/204/64 61/175/64 65/203/64 
f 56/205/65 4/206/65 3/207/65 
f 54/208/65 56/205/65 3/207/65 
f 52/209/65 54/208/65 3/207/65 
f 50/210/65 52/209/65 3/207/65 
f 48/211/65 50/210/65 3/207/65 
f 46/212/65 48/211/65 3/207/65 
f 44/213/65 46/212/65 3/207/65 
f 42/214/65 44/213/65 3/207/65 
f 40/215/65 42/214/65 3/207/65 
f 38/216/65 40/215/65 3/207/65 
f 36/217/65 38/216/65 3/207/65 
f 3/207/65 6/218/65 8/219/65 
f 3/207/65 8/219/65 10/220/65 
f 3/207/65 10/220/65 12/221/65 
f 3/207/65 12/221/65 14/222/65 
f 3/207/65 14/222/65 16/223/65 
f 3/207/65 16/223/65 18/224/65 
f 3/207/65 18/224/65 20/225/65 
f 3/207/65 20/225/65 22/226/65 
f 3/207/65 22/226/65 24/227/65 
f 3/207/65 24/227/65 26/228/65 
f 3/207/65 26/228/65 28/229/65 
f 3/207/65 28/229/65 30/230/65 
f 3/207/65 30/230/65 32/231/65 
f 3/207/65 32/231/65 34/232/65 
f 36/217/65 3/207/65 34/232/65 
f 124/233/65 60/234/65 59/235/65 
f 122/236/65 124/233/65 59/235/65 
f 122/236/65 59/235/65 62/237/65 
f 120/238/65 122/236/65 62/237/65 
f 118/239/65 120/238/65 62/237/65 
f 116/240/65 118/239/65 62/237/65 
f 114/241/65 116/240/65 62/237/65 
f 112/242/65 114/241/65 62/237/65 
f 110/243/65 112/242/65 62/237/65 
f 108/244/65 110/243/65 62/237/65 
f 106/245/65 108/244/65 62/237/65 
f 104/246/65 106/245/65 62/237/65 
f 102/247/65 104/246/65 62/237/65 
f 100/248/65 102/247/65 62/237/65 
f 98/249/65 100/248/65 62/237/65 
f 96/250/65 98/249/65 62/237/65 
f 94/251/65 96/250/65 62/237/65 
f 92/252/65 94/251/65 62/237/65 
f 90/253/65 92/252/65 62/237/65 
f 88/254/65 90/253/65 62/237/65 
f 86/255/65 88/254/65 62/237/65 
f 84/256/65 86/255/65 62/237/65 
f 82/257/65 84/256/65 62/237/65 
f 80/258/65 82/257/65 62/237/65 
f 78/259/65 80/258/65 62/237/65 
f 76/260/65 78/259/65 62/237/65 
f 74/261/65 76/260/65 62/237/65 
f 72/262/65 74/261/65 62/237/65 
f 70/263/65 72/262/65 62/237/65 
f 68/264/65 70/263/65 62/237/65 
f 66/265/65 68/264/65 62/237/65 
f 64/266/65 66/265/65 62/237/65 
# 240 faces

